<svg width="289" height="92" viewBox="0 0 289 92" fill="none" xmlns="http://www.w3.org/2000/svg">
<ellipse cx="66" cy="45.0836" rx="41" ry="40.0836" fill="url(#paint0_linear_3_11)"/>
<ellipse cx="69.8" cy="40.4113" rx="32.8" ry="32.0668" fill="white"/>
<path d="M41.8512 81.6791L48.464 63.7041L56.8666 69.4561L41.8512 81.6791Z" fill="white"/>
<path d="M45.8852 44.4074L58.7063 34.037L94 5L71.042 35.5185L90.5734 34.037L75.8392 47.3704L45 77L65.5594 44.4074L45.8852 44.4074Z" fill="#67A8FF"/>
<path d="M116.742 33.0581H122.596L124.841 40.9346L127.17 33.0581H133.126V34.8486H132.486C132.139 34.8486 131.898 34.9229 131.762 35.0713C131.632 35.2135 131.567 35.4857 131.567 35.8877V43.2354C131.567 43.557 131.586 43.758 131.623 43.8384C131.679 43.9621 131.756 44.0487 131.855 44.0981C131.991 44.1724 132.17 44.2095 132.393 44.2095H133.126V46H126.901V44.2095H127.383C127.736 44.2095 127.974 44.1816 128.098 44.126C128.221 44.0703 128.311 43.9868 128.367 43.8755C128.429 43.758 128.459 43.5446 128.459 43.2354V35.2754L125.305 46H123.515L120.462 35.6187V43.4858C120.462 43.6652 120.493 43.8044 120.555 43.9033C120.623 44.0023 120.716 44.0796 120.833 44.1353C120.957 44.1847 121.152 44.2095 121.418 44.2095H122.04V46H116.742V44.2095H117.262C117.59 44.2095 117.812 44.1816 117.93 44.126C118.053 44.0641 118.143 43.9714 118.199 43.8477C118.261 43.7178 118.292 43.4827 118.292 43.1426V35.8877C118.292 35.5537 118.27 35.3372 118.227 35.2383C118.171 35.1022 118.087 35.0033 117.976 34.9414C117.865 34.8796 117.688 34.8486 117.447 34.8486H116.742V33.0581ZM145.132 32.8354C147.185 32.8354 148.846 33.4601 150.114 34.7095C151.388 35.9588 152.025 37.5638 152.025 39.5244C152.025 40.8418 151.734 42.0107 151.153 43.0312C150.572 44.0518 149.768 44.8403 148.741 45.397C147.72 45.9474 146.486 46.2227 145.039 46.2227C143.128 46.2227 141.563 45.6969 140.345 44.6455C138.873 43.3776 138.137 41.6829 138.137 39.5615C138.137 37.5885 138.78 35.9743 140.067 34.7188C141.359 33.4632 143.048 32.8354 145.132 32.8354ZM145.169 34.895C144.186 34.895 143.403 35.263 142.822 35.999C142.092 36.9268 141.727 38.1235 141.727 39.5894C141.727 41.0552 142.067 42.2148 142.748 43.0684C143.335 43.7982 144.111 44.1631 145.076 44.1631C146.047 44.1631 146.824 43.7982 147.405 43.0684C148.091 42.1963 148.435 41.0304 148.435 39.5708C148.435 38.5441 148.286 37.6813 147.989 36.9824C147.699 36.2835 147.303 35.7609 146.802 35.4146C146.301 35.0682 145.757 34.895 145.169 34.895ZM156.99 33.0581H163.771C165.311 33.0581 166.536 33.3024 167.445 33.791C168.354 34.2796 169.078 35.0033 169.616 35.9619C170.16 36.9206 170.432 38.071 170.432 39.4131C170.432 40.347 170.293 41.182 170.015 41.918C169.743 42.654 169.335 43.3188 168.79 43.9126C168.246 44.5002 167.662 44.9424 167.037 45.2393C166.567 45.4619 165.899 45.6444 165.033 45.7866C164.173 45.9289 163.484 46 162.964 46H156.99V44.2095H157.435C157.812 44.2095 158.06 44.1785 158.177 44.1167C158.295 44.0549 158.39 43.9497 158.465 43.8013C158.514 43.6838 158.539 43.4271 158.539 43.0312V35.9619C158.539 35.5661 158.511 35.3125 158.455 35.2012C158.406 35.0837 158.319 34.9971 158.196 34.9414C158.078 34.8796 157.824 34.8486 157.435 34.8486H156.99V33.0581ZM161.721 35.1362V43.1797C161.721 43.4518 161.736 43.6188 161.767 43.6807C161.817 43.7734 161.888 43.8384 161.981 43.8755C162.08 43.9064 162.312 43.9219 162.677 43.9219C163.691 43.9219 164.483 43.7673 165.052 43.458C165.627 43.1426 166.091 42.6416 166.443 41.9551C166.796 41.2624 166.972 40.4398 166.972 39.4873C166.972 38.5472 166.805 37.7308 166.471 37.0381C166.143 36.3392 165.735 35.8475 165.246 35.563C164.758 35.2785 164.059 35.1362 163.15 35.1362H161.721ZM175.369 33.0581H181.678V34.8486H181.102C180.768 34.8486 180.546 34.8796 180.434 34.9414C180.329 34.9971 180.249 35.0898 180.193 35.2197C180.144 35.3434 180.119 35.5846 180.119 35.9434V43.1055C180.119 43.4951 180.141 43.7456 180.184 43.8569C180.227 43.9683 180.302 44.0487 180.407 44.0981C180.537 44.1724 180.731 44.2095 180.991 44.2095H181.678V46H175.369V44.2095H175.879C176.244 44.2095 176.482 44.1847 176.594 44.1353C176.705 44.0796 176.785 43.9961 176.835 43.8848C176.891 43.7673 176.918 43.5384 176.918 43.1982V36.0083C176.918 35.6063 176.891 35.3434 176.835 35.2197C176.785 35.0898 176.699 34.9909 176.575 34.9229C176.489 34.8734 176.278 34.8486 175.944 34.8486H175.369V33.0581ZM186.698 33.0581H193.025V34.8486H192.468C192.159 34.8486 191.964 34.8641 191.884 34.895C191.735 34.9569 191.627 35.0527 191.559 35.1826C191.491 35.3063 191.457 35.5073 191.457 35.7856V43.1797C191.457 43.4766 191.469 43.659 191.494 43.7271C191.525 43.7951 191.584 43.8507 191.67 43.894C191.757 43.9312 191.924 43.9497 192.171 43.9497C193 43.9497 193.665 43.8415 194.166 43.625C194.673 43.4085 195.128 43.0622 195.53 42.5859C195.938 42.1035 196.287 41.451 196.578 40.6284L198.285 41.2129L196.578 46H186.698V44.2095H187.319C187.573 44.2095 187.765 44.1755 187.895 44.1074C188.024 44.0394 188.117 43.9497 188.173 43.8384C188.235 43.7209 188.266 43.5199 188.266 43.2354V35.9062C188.266 35.597 188.235 35.3743 188.173 35.2383C188.117 35.1022 188.034 35.0033 187.922 34.9414C187.817 34.8796 187.638 34.8486 187.384 34.8486H186.698V33.0581ZM209.373 32.8354C211.426 32.8354 213.087 33.4601 214.355 34.7095C215.629 35.9588 216.266 37.5638 216.266 39.5244C216.266 40.8418 215.975 42.0107 215.394 43.0312C214.812 44.0518 214.008 44.8403 212.982 45.397C211.961 45.9474 210.727 46.2227 209.28 46.2227C207.369 46.2227 205.804 45.6969 204.586 44.6455C203.114 43.3776 202.378 41.6829 202.378 39.5615C202.378 37.5885 203.021 35.9743 204.307 34.7188C205.6 33.4632 207.288 32.8354 209.373 32.8354ZM209.41 34.895C208.426 34.895 207.644 35.263 207.063 35.999C206.333 36.9268 205.968 38.1235 205.968 39.5894C205.968 41.0552 206.308 42.2148 206.988 43.0684C207.576 43.7982 208.352 44.1631 209.317 44.1631C210.288 44.1631 211.064 43.7982 211.646 43.0684C212.332 42.1963 212.675 41.0304 212.675 39.5708C212.675 38.5441 212.527 37.6813 212.23 36.9824C211.939 36.2835 211.544 35.7609 211.043 35.4146C210.542 35.0682 209.997 34.895 209.41 34.895ZM228.866 39.0977H235.183V40.9067H234.71C234.401 40.9067 234.188 40.9346 234.07 40.9902C233.959 41.0459 233.875 41.1356 233.82 41.2593C233.764 41.3768 233.736 41.6056 233.736 41.9458V46H231.834L231.343 45.0723C230.761 45.4557 230.158 45.7433 229.534 45.9351C228.909 46.1268 228.259 46.2227 227.585 46.2227C226.404 46.2227 225.328 45.9351 224.357 45.3599C223.386 44.7847 222.616 43.9806 222.047 42.9478C221.484 41.9149 221.202 40.7583 221.202 39.478C221.202 38.2101 221.481 37.0752 222.037 36.0732C222.6 35.0713 223.383 34.2827 224.385 33.7075C225.393 33.1261 226.484 32.8354 227.66 32.8354C228.229 32.8354 228.794 32.9097 229.357 33.0581C229.926 33.2004 230.412 33.3921 230.814 33.6333L231.157 33.0581H232.456L233.625 37.3442L231.918 37.9009C231.336 36.9608 230.876 36.3206 230.535 35.9805C230.201 35.6403 229.815 35.3743 229.376 35.1826C228.943 34.9909 228.519 34.895 228.105 34.895C227.517 34.895 226.967 35.0651 226.453 35.4053C225.946 35.7454 225.544 36.2433 225.247 36.8989C224.951 37.5483 224.802 38.3369 224.802 39.2646C224.802 40.2852 224.963 41.1696 225.285 41.918C225.612 42.6663 226.039 43.223 226.565 43.5879C227.09 43.9466 227.669 44.126 228.3 44.126C228.745 44.126 229.166 44.0363 229.561 43.8569C229.963 43.6776 230.239 43.4766 230.387 43.2539C230.535 43.0312 230.61 42.7313 230.61 42.354V41.8809C230.61 41.5531 230.588 41.3459 230.545 41.2593C230.477 41.1356 230.384 41.0459 230.266 40.9902C230.155 40.9346 229.932 40.9067 229.598 40.9067H228.866V39.0977ZM239.443 33.0581H246.41V34.8486H245.872C245.588 34.8486 245.405 34.8734 245.325 34.9229C245.25 34.9661 245.213 35.0404 245.213 35.1455C245.213 35.2012 245.229 35.2599 245.26 35.3218C245.291 35.3774 245.38 35.495 245.529 35.6743L246.902 37.3257L248.442 35.6187C248.64 35.4022 248.739 35.2445 248.739 35.1455C248.739 35.0465 248.695 34.9723 248.609 34.9229C248.528 34.8734 248.34 34.8486 248.043 34.8486H247.57V33.0581H253.377V34.8486C252.951 34.861 252.648 34.8919 252.468 34.9414C252.295 34.9909 252.094 35.0898 251.865 35.2383C251.698 35.3496 251.516 35.5104 251.318 35.7207L247.876 39.1255L251.661 43.1611C252.075 43.6064 252.419 43.894 252.691 44.0239C252.963 44.1476 253.334 44.2095 253.804 44.2095V46H246.716V44.2095H247.366C247.669 44.2095 247.857 44.1878 247.932 44.1445C248.006 44.1012 248.043 44.0363 248.043 43.9497C248.043 43.8322 247.941 43.6528 247.737 43.4116L245.872 41.2871L243.877 43.4116C243.704 43.6034 243.618 43.7734 243.618 43.9219C243.618 44.0085 243.664 44.0796 243.757 44.1353C243.85 44.1847 244.038 44.2095 244.323 44.2095H244.824V46H238.942V44.2095C239.35 44.2095 239.638 44.1878 239.805 44.1445C239.978 44.1012 240.136 44.0301 240.278 43.9312C240.519 43.758 240.813 43.5013 241.159 43.1611L244.87 39.4688L241.335 35.6743C241.001 35.3156 240.726 35.0898 240.51 34.9971C240.299 34.8981 239.944 34.8486 239.443 34.8486V33.0581Z" fill="#387EDB"/>
<path d="M141.576 52.145H142.033L142.712 54.8745L142.128 55.0522C141.756 54.2863 141.261 53.6833 140.643 53.2432C140.135 52.875 139.572 52.6909 138.955 52.6909C138.582 52.6909 138.248 52.7586 137.952 52.894C137.655 53.0252 137.433 53.1966 137.285 53.4082C137.137 53.6198 137.063 53.8356 137.063 54.0557C137.063 54.2546 137.12 54.4471 137.234 54.6333C137.349 54.8195 137.522 54.9845 137.755 55.1284C137.988 55.2681 138.368 55.4162 138.897 55.5728L140.554 56.0615C140.757 56.1208 141.051 56.235 141.437 56.4043C141.826 56.5736 142.128 56.7534 142.344 56.9438C142.56 57.13 142.729 57.3607 142.852 57.6357C142.975 57.9066 143.036 58.2007 143.036 58.5181C143.036 59.2205 142.727 59.8363 142.109 60.3652C141.496 60.89 140.7 61.1523 139.723 61.1523C139.219 61.1523 138.768 61.0804 138.371 60.9365C137.973 60.7884 137.543 60.5282 137.082 60.1558L136.79 61H136.346L135.755 57.8198L136.346 57.6992C136.562 58.2874 136.847 58.7868 137.203 59.1973C137.562 59.6077 137.958 59.9188 138.39 60.1304C138.826 60.3377 139.268 60.4414 139.716 60.4414C140.326 60.4414 140.859 60.2573 141.316 59.8892C141.697 59.5802 141.887 59.2163 141.887 58.7974C141.887 58.4123 141.75 58.097 141.475 57.8516C141.195 57.6061 140.696 57.3776 139.977 57.166L138.39 56.709C137.501 56.4508 136.875 56.1208 136.511 55.7188C136.147 55.3167 135.965 54.8555 135.965 54.335C135.965 53.9287 136.083 53.5542 136.32 53.2114C136.557 52.8644 136.921 52.5745 137.412 52.3418C137.903 52.109 138.44 51.9927 139.024 51.9927C139.515 51.9927 139.985 52.0773 140.434 52.2466C140.751 52.3651 141.043 52.5343 141.31 52.7544L141.576 52.145ZM151.378 51.9927C152.186 51.9927 152.916 52.1873 153.568 52.5767C154.274 52.9956 154.816 53.5394 155.193 54.208C155.574 54.8766 155.764 55.651 155.764 56.5312C155.764 57.8939 155.341 59.0047 154.494 59.8638C153.648 60.7228 152.569 61.1523 151.257 61.1523C149.793 61.1523 148.633 60.6361 147.779 59.6035C147.08 58.7614 146.731 57.7542 146.731 56.582C146.731 55.7103 146.928 54.9295 147.322 54.2397C147.715 53.5457 148.274 52.9977 148.997 52.5957C149.721 52.1937 150.514 51.9927 151.378 51.9927ZM151.378 52.6782C150.718 52.6782 150.151 52.8306 149.677 53.1353C149.203 53.4357 148.822 53.88 148.534 54.4683C148.25 55.0565 148.109 55.7822 148.109 56.6455C148.109 57.4707 148.248 58.1711 148.528 58.7466C148.811 59.3179 149.19 59.7559 149.664 60.0605C150.138 60.3652 150.671 60.5176 151.263 60.5176C151.852 60.5176 152.372 60.3695 152.825 60.0732C153.278 59.7728 153.652 59.3031 153.949 58.6641C154.245 58.0208 154.393 57.3078 154.393 56.5249C154.393 55.7293 154.245 55.0015 153.949 54.3413C153.695 53.7743 153.358 53.3553 152.939 53.0845C152.52 52.8136 152 52.6782 151.378 52.6782ZM159.516 52.145H162.95V52.6846H162.633C162.387 52.6846 162.214 52.7078 162.112 52.7544C162.011 52.8009 161.937 52.8687 161.89 52.9575C161.844 53.0464 161.82 53.2051 161.82 53.4336V59.6099C161.82 59.8934 161.831 60.0627 161.852 60.1177C161.878 60.1938 161.933 60.2489 162.017 60.2827C162.076 60.3081 162.248 60.3208 162.531 60.3208H163.007C163.553 60.3208 164.027 60.2425 164.429 60.0859C164.831 59.9251 165.178 59.6945 165.47 59.394C165.762 59.0894 166.044 58.6366 166.315 58.0356L166.879 58.2261L165.889 61H159.516V60.4668H159.795C160.066 60.4668 160.248 60.4435 160.341 60.397C160.434 60.3504 160.506 60.2743 160.557 60.1685C160.608 60.0584 160.633 59.8722 160.633 59.6099V53.5859C160.633 53.2812 160.61 53.0781 160.564 52.9766C160.517 52.8708 160.449 52.7967 160.36 52.7544C160.272 52.7078 160.083 52.6846 159.795 52.6846H159.516V52.145ZM169.692 52.145H173.114V52.6846H172.885C172.606 52.6846 172.407 52.7121 172.288 52.7671C172.195 52.8094 172.125 52.8813 172.079 52.9829C172.032 53.0845 172.009 53.2876 172.009 53.5923V57.5786C172.009 58.2896 172.094 58.8164 172.263 59.1592C172.437 59.502 172.722 59.7897 173.12 60.0225C173.522 60.2552 173.962 60.3716 174.44 60.3716C174.923 60.3716 175.38 60.2467 175.811 59.9971C176.243 59.7474 176.546 59.4512 176.719 59.1084C176.893 58.7656 176.979 58.224 176.979 57.4834V53.6494C176.979 53.3701 176.952 53.1691 176.897 53.0464C176.842 52.9237 176.757 52.8327 176.643 52.7734C176.533 52.7142 176.359 52.6846 176.122 52.6846H175.875V52.145H178.839V52.6846H178.636C178.302 52.6846 178.071 52.748 177.944 52.875C177.821 53.002 177.76 53.241 177.76 53.5923V57.6738C177.76 58.4186 177.62 59.0407 177.341 59.54C177.062 60.0352 176.656 60.4287 176.122 60.7207C175.589 61.0085 174.969 61.1523 174.263 61.1523C173.594 61.1523 172.982 61.0042 172.428 60.708C171.874 60.4118 171.465 60.0436 171.203 59.6035C170.945 59.1592 170.816 58.6027 170.816 57.9341V53.5923C170.816 53.313 170.79 53.1183 170.74 53.0083C170.689 52.894 170.615 52.8115 170.517 52.7607C170.42 52.71 170.251 52.6846 170.01 52.6846H169.692V52.145ZM182.604 51.8467H183.048L183.112 52.145H188.546L188.596 51.8467H189.06L189.993 54.4492L189.422 54.6523C189.146 53.9583 188.821 53.4717 188.444 53.1924C188.067 52.9089 187.585 52.7671 186.997 52.7671C186.751 52.7671 186.605 52.7777 186.559 52.7988C186.512 52.8158 186.478 52.8475 186.457 52.894C186.44 52.9406 186.432 53.0887 186.432 53.3384V59.4829C186.432 59.7749 186.447 59.9717 186.476 60.0732C186.51 60.1748 186.557 60.2531 186.616 60.3081C186.675 60.3631 186.755 60.4033 186.857 60.4287C186.963 60.4499 187.196 60.4626 187.555 60.4668V61H184.14V60.4668C184.517 60.4626 184.748 60.4499 184.832 60.4287C184.98 60.3864 185.086 60.306 185.15 60.1875C185.213 60.069 185.245 59.8511 185.245 59.5337V53.2559C185.245 53.0612 185.234 52.9427 185.213 52.9004C185.196 52.8581 185.16 52.8263 185.105 52.8052C185.054 52.7798 184.946 52.7671 184.781 52.7671C184.32 52.7671 183.95 52.8263 183.671 52.9448C183.395 53.0633 183.135 53.2643 182.89 53.5479C182.644 53.8314 182.435 54.1995 182.261 54.6523L181.69 54.4492L182.604 51.8467ZM192.856 52.145H196.246V52.6846H195.986C195.74 52.6846 195.563 52.7184 195.453 52.7861C195.343 52.8538 195.262 52.9512 195.211 53.0781C195.161 53.2008 195.135 53.4421 195.135 53.8018V59.5083C195.135 59.7961 195.163 60.0013 195.218 60.124C195.273 60.2425 195.349 60.3293 195.446 60.3843C195.548 60.4393 195.728 60.4668 195.986 60.4668H196.246V61H192.856V60.4668H193.136C193.385 60.4668 193.561 60.4393 193.662 60.3843C193.768 60.325 193.844 60.2425 193.891 60.1367C193.938 60.0267 193.961 59.8172 193.961 59.5083V53.6685C193.961 53.3426 193.938 53.1247 193.891 53.0146C193.844 52.9004 193.768 52.8179 193.662 52.7671C193.561 52.7121 193.385 52.6846 193.136 52.6846H192.856V52.145ZM204.556 51.9927C205.364 51.9927 206.094 52.1873 206.746 52.5767C207.452 52.9956 207.994 53.5394 208.371 54.208C208.752 54.8766 208.942 55.651 208.942 56.5312C208.942 57.8939 208.519 59.0047 207.673 59.8638C206.826 60.7228 205.747 61.1523 204.435 61.1523C202.971 61.1523 201.812 60.6361 200.957 59.6035C200.258 58.7614 199.909 57.7542 199.909 56.582C199.909 55.7103 200.106 54.9295 200.5 54.2397C200.893 53.5457 201.452 52.9977 202.175 52.5957C202.899 52.1937 203.693 51.9927 204.556 51.9927ZM204.556 52.6782C203.896 52.6782 203.329 52.8306 202.855 53.1353C202.381 53.4357 202 53.88 201.712 54.4683C201.429 55.0565 201.287 55.7822 201.287 56.6455C201.287 57.4707 201.426 58.1711 201.706 58.7466C201.989 59.3179 202.368 59.7559 202.842 60.0605C203.316 60.3652 203.849 60.5176 204.442 60.5176C205.03 60.5176 205.55 60.3695 206.003 60.0732C206.456 59.7728 206.83 59.3031 207.127 58.6641C207.423 58.0208 207.571 57.3078 207.571 56.5249C207.571 55.7293 207.423 55.0015 207.127 54.3413C206.873 53.7743 206.536 53.3553 206.117 53.0845C205.698 52.8136 205.178 52.6782 204.556 52.6782ZM212.656 52.145H215.373L219.404 58.7847V53.7319C219.404 53.4315 219.374 53.2157 219.315 53.0845C219.256 52.9533 219.167 52.8538 219.048 52.7861C218.93 52.7184 218.754 52.6846 218.521 52.6846H218.293V52.145H221.257V52.6846H221.099C220.836 52.6846 220.658 52.7057 220.565 52.748C220.434 52.8073 220.335 52.9152 220.267 53.0718C220.204 53.2284 220.172 53.4484 220.172 53.7319V61H219.404L214.548 53.021V59.3433C214.548 59.6945 214.558 59.9082 214.58 59.9844C214.609 60.0817 214.662 60.1706 214.738 60.251C214.819 60.3314 214.912 60.3864 215.018 60.416C215.123 60.4456 215.337 60.4626 215.659 60.4668V61H212.656V60.4668H212.815C213.12 60.4668 213.325 60.4372 213.431 60.3779C213.541 60.3187 213.625 60.2171 213.685 60.0732C213.744 59.9294 213.773 59.686 213.773 59.3433V53.7319C213.773 53.3807 213.765 53.167 213.748 53.0908C213.71 52.9469 213.636 52.8433 213.526 52.7798C213.42 52.7163 213.206 52.6846 212.885 52.6846H212.656V52.145ZM230.767 52.145H231.224L231.903 54.8745L231.319 55.0522C230.947 54.2863 230.452 53.6833 229.834 53.2432C229.326 52.875 228.763 52.6909 228.145 52.6909C227.773 52.6909 227.439 52.7586 227.142 52.894C226.846 53.0252 226.624 53.1966 226.476 53.4082C226.328 53.6198 226.254 53.8356 226.254 54.0557C226.254 54.2546 226.311 54.4471 226.425 54.6333C226.539 54.8195 226.713 54.9845 226.946 55.1284C227.178 55.2681 227.559 55.4162 228.088 55.5728L229.745 56.0615C229.948 56.1208 230.242 56.235 230.627 56.4043C231.017 56.5736 231.319 56.7534 231.535 56.9438C231.751 57.13 231.92 57.3607 232.043 57.6357C232.165 57.9066 232.227 58.2007 232.227 58.5181C232.227 59.2205 231.918 59.8363 231.3 60.3652C230.686 60.89 229.891 61.1523 228.913 61.1523C228.41 61.1523 227.959 61.0804 227.561 60.9365C227.163 60.7884 226.734 60.5282 226.273 60.1558L225.981 61H225.536L224.946 57.8198L225.536 57.6992C225.752 58.2874 226.038 58.7868 226.393 59.1973C226.753 59.6077 227.149 59.9188 227.58 60.1304C228.016 60.3377 228.458 60.4414 228.907 60.4414C229.516 60.4414 230.05 60.2573 230.507 59.8892C230.887 59.5802 231.078 59.2163 231.078 58.7974C231.078 58.4123 230.94 58.097 230.665 57.8516C230.386 57.6061 229.887 57.3776 229.167 57.166L227.58 56.709C226.692 56.4508 226.065 56.1208 225.701 55.7188C225.337 55.3167 225.156 54.8555 225.156 54.335C225.156 53.9287 225.274 53.5542 225.511 53.2114C225.748 52.8644 226.112 52.5745 226.603 52.3418C227.094 52.109 227.631 51.9927 228.215 51.9927C228.706 51.9927 229.176 52.0773 229.624 52.2466C229.942 52.3651 230.234 52.5343 230.5 52.7544L230.767 52.145Z" fill="#1190CF"/>
<defs>
<linearGradient id="paint0_linear_3_11" x1="25" y1="18.1944" x2="105.531" y2="84.6887" gradientUnits="userSpaceOnUse">
<stop stop-color="#00C4CC"/>
<stop offset="0.328881" stop-color="#3E77DA" stop-opacity="0.94"/>
<stop offset="0.599243" stop-color="#5D51E1" stop-opacity="0.91"/>
<stop offset="0.845122" stop-color="#7C2AE8" stop-opacity="0.88"/>
</linearGradient>
</defs>
</svg>
